<svg aria-hidden="true" focusable="false" data-prefix="fad" data-icon="brush" class="svg-inline--fa fa-brush fa-w-12" role="img" xmlns="http://www.w3.org/2000/svg" viewBox="0 0 384  512" fill="currentColor"><g class="fa-group"><path class="fa-secondary" fill="currentColor" d="M384 32v224H0V32A32 32 0 0 1 32 0h320a32 32 0 0 1 32 32z" opacity="0.4"></path><path class="fa-primary" fill="currentColor" d="M0 288v32a64 64 0 0 0 64 64h64v64a64 64 0 0 0 128 0v-64h64a64 64 0 0 0 64-64v-32zm192 184a24 24 0 1 1 24-24 24 24 0 0 1-24 24z"></path></g></svg>