<svg aria-hidden="true" focusable="false" data-prefix="fad" data-icon="paint-roller" class="svg-inline--fa fa-paint-roller fa-w-16" role="img" xmlns="http://www.w3.org/2000/svg" viewBox="0 0 512  512" fill="currentColor"><g class="fa-group"><path class="fa-secondary" fill="currentColor" d="M384 160H32a32 32 0 0 1-32-32V32A32 32 0 0 1 32 0h352a32 32 0 0 1 32 32v96a32 32 0 0 1-32 32z" opacity="0.4"></path><path class="fa-primary" fill="currentColor" d="M512 128v64a96 96 0 0 1-96 96H256v32a32 32 0 0 1 32 32v128a32 32 0 0 1-32 32h-64a32 32 0 0 1-32-32V352a32 32 0 0 1 32-32v-32a64 64 0 0 1 64-64h160a32 32 0 0 0 32-32V64a64 64 0 0 1 64 64z"></path></g></svg>