<svg aria-hidden="true" focusable="false" data-prefix="fad" data-icon="signal" class="svg-inline--fa fa-signal fa-w-20" role="img" xmlns="http://www.w3.org/2000/svg" viewBox="0 0 640  512" fill="currentColor"><g class="fa-group"><path class="fa-secondary" fill="currentColor" d="" opacity="0.4"></path><path class="fa-primary" fill="currentColor" d="M216 288h-48a16 16 0 0 0-16 16v192a16 16 0 0 0 16 16h48a16 16 0 0 0 16-16V304a16 16 0 0 0-16-16zM88 384H40a16 16 0 0 0-16 16v96a16 16 0 0 0 16 16h48a16 16 0 0 0 16-16v-96a16 16 0 0 0-16-16zm256-192h-48a16 16 0 0 0-16 16v288a16 16 0 0 0 16 16h48a16 16 0 0 0 16-16V208a16 16 0 0 0-16-16zM600 0h-48a16 16 0 0 0-16 16v480a16 16 0 0 0 16 16h48a16 16 0 0 0 16-16V16a16 16 0 0 0-16-16zM472 96h-48a16 16 0 0 0-16 16v384a16 16 0 0 0 16 16h48a16 16 0 0 0 16-16V112a16 16 0 0 0-16-16z"></path></g></svg>